<svg id="레이어_1" data-name="레이어 1" xmlns="http://www.w3.org/2000/svg" viewBox="0 0 70 70"><defs><style>.cls-1{fill:#e5e5e5;}.cls-2{font-size:26px;fill:#343434;font-family:SDGdGulim-KSCpc-EUC-H, Sandoll Gyeokdonggulim;}.cls-3{fill:#00d887;}.cls-4{fill:#fff;}.cls-5{fill:none;stroke:#343434;stroke-linecap:round;stroke-linejoin:round;stroke-width:3.65px;}</style></defs><title>아이콘7</title><circle class="cls-1" cx="35" cy="35" r="35"/><text class="cls-2" transform="translate(39.06 52.43)">n</text><path class="cls-3" d="M23.28,44.64V32.15a.59.59,0,0,1,.59-.59h8.08V28a3.55,3.55,0,0,0-.72-1.65l-.59-.59-2.8-2.8V11.54a1.27,1.27,0,0,0-1.27-1.27h-.25a1.05,1.05,0,0,0-.26,0H23.79a1.05,1.05,0,0,0-.26,0h-.15a1.27,1.27,0,0,0-1.27,1.27V22.85L18.43,26.4a1.69,1.69,0,0,0-.52,1.22V49.36A1.06,1.06,0,0,0,19,50.42H30.88a1.06,1.06,0,0,0,1.06-1.06V45.23H23.86A.59.59,0,0,1,23.28,44.64Z"/><path class="cls-4" d="M31.94,31.56H23.86a.59.59,0,0,0-.59.59V44.64a.59.59,0,0,0,.59.59h8.08V31.56Z"/><polygon class="cls-1" points="14.1 47.51 37.75 23.85 37.75 56.11 14.1 56.11 14.1 47.51"/><path class="cls-5" d="M54.08,16.12,15.92,54.28Z"/></svg>