<svg id="레이어_1" data-name="레이어 1" xmlns="http://www.w3.org/2000/svg" viewBox="0 0 70 70"><defs><style>.cls-1{fill:#e5e5e5;}.cls-2{fill:#ccc;}.cls-3{fill:#fff;}.cls-4{fill:#00d887;}.cls-5,.cls-6{fill:none;stroke:#00d887;stroke-linecap:round;stroke-linejoin:round;}.cls-5{stroke-width:2.93px;}.cls-6{stroke-width:0.25px;}</style></defs><title>아이콘1</title><path class="cls-1" d="M22.31,54.51C21.46,43,18.84,36.42,16.55,32.75h0a16.23,16.23,0,0,0-2.64-3.32,1.36,1.36,0,0,0,.32-1.12,44.54,44.54,0,0,1,4.54-.24,48.71,48.71,0,0,1,24.15,6.17,44,44,0,0,1,6.26,4.34A51,51,0,0,1,62.64,56.46,35,35,0,1,0,22.06,67.52,78,78,0,0,0,22.31,54.51Z"/><circle class="cls-2" cx="53.59" cy="25.42" r="13.93"/><circle class="cls-3" cx="44.88" cy="21.02" r="13.93"/><circle class="cls-1" cx="44.88" cy="21.02" r="10.99"/><path class="cls-3" d="M62.64,56.46A51,51,0,0,0,49.17,38.58a44,44,0,0,0-6.26-4.34,48.71,48.71,0,0,0-24.15-6.17,44.54,44.54,0,0,0-4.54.24,1.36,1.36,0,0,1-.32,1.12,16.23,16.23,0,0,1,2.64,3.32h0c2.29,3.68,4.91,10.28,5.76,21.76a78,78,0,0,1-.24,13A35,35,0,0,0,62.64,56.46Z"/><path class="cls-4" d="M14.22,28.3c-1,.1-1.5.2-1.5.2a6.55,6.55,0,0,1,1.18.92,1.36,1.36,0,0,0,.32-1.12Z"/><path class="cls-5" d="M26.56,32.75v0Z"/><path class="cls-6" d="M23.26,36.75s-4.49-6.34-10.54-8.16"/><path class="cls-6" d="M20.84,39.16s-2.74-7.27-8.12-10.57"/><path class="cls-6" d="M2.08,36.62s4.57-6.28,10.64-8"/><path class="cls-6" d="M4.47,39.06s2.83-7.24,8.25-10.47"/></svg>