<svg id="레이어_1" data-name="레이어 1" xmlns="http://www.w3.org/2000/svg" viewBox="0 0 70 70"><defs><style>.cls-1{fill:#e5e5e5;}.cls-2{fill:#00d887;}.cls-3{fill:#343434;}</style></defs><title>아이콘6</title><circle class="cls-1" cx="35" cy="35" r="35"/><path class="cls-2" d="M39.77,48.45A2.35,2.35,0,0,1,37.55,46a2.32,2.32,0,0,1,2.22-2.41H53.86A2.3,2.3,0,0,1,56.08,46a2.37,2.37,0,0,1-2.22,2.47Zm7-12.36a3.12,3.12,0,1,1-3.12,3.12A3.15,3.15,0,0,1,46.82,36.09Zm0,13.59A3.12,3.12,0,1,1,43.7,52.8,3.15,3.15,0,0,1,46.82,49.68Z"/><path class="cls-3" d="M21,26.46H16.18a2.48,2.48,0,0,1-2.34-2.6,2.44,2.44,0,0,1,2.34-2.54H21V16.42a2.54,2.54,0,0,1,2.67-2.34,2.5,2.5,0,0,1,2.6,2.34v4.91H31a2.42,2.42,0,0,1,2.34,2.54A2.5,2.5,0,0,1,31,26.46H26.22v4.91a2.48,2.48,0,0,1-2.6,2.34A2.56,2.56,0,0,1,21,31.37Z"/><path class="cls-3" d="M39.4,26.5a2.51,2.51,0,0,1-2.34-2.63,2.47,2.47,0,0,1,2.34-2.57H53.82a2.45,2.45,0,0,1,2.34,2.57,2.53,2.53,0,0,1-2.34,2.63Z"/><path class="cls-3" d="M19.87,46.59,16.52,43.2a2.51,2.51,0,0,1,.2-3.51,2.45,2.45,0,0,1,3.45-.13l3.35,3.38L27,39.47a2.55,2.55,0,0,1,3.54.23,2.51,2.51,0,0,1,.2,3.51l-3.48,3.48L30.63,50a2.43,2.43,0,0,1-.13,3.45,2.51,2.51,0,0,1-3.51.2l-3.38-3.35-3.45,3.45a2.51,2.51,0,0,1-3.51-.2A2.58,2.58,0,0,1,16.43,50Z"/></svg>