<svg id="레이어_1" data-name="레이어 1" xmlns="http://www.w3.org/2000/svg" viewBox="0 0 70 70"><defs><style>.cls-1{fill:#fff;}.cls-2{fill:#00d887;}.cls-3{fill:#e5e5e5;}.cls-4{fill:#ccc;}.cls-5,.cls-6{fill:none;stroke:#00d887;stroke-linecap:round;stroke-linejoin:round;}.cls-5{stroke-width:2.93px;}.cls-6{stroke-width:0.25px;}</style></defs><title>아이콘2</title><path class="cls-1" d="M36.66,31.45H33.32c-7.59,0-13.38,4.79-16.25,11.44A16,16,0,0,1,35,53.79,16,16,0,0,1,52.92,42.89C50,36.24,44.25,31.45,36.66,31.45Z"/><circle class="cls-2" cx="34.98" cy="52.24" r="1.52"/><path class="cls-3" d="M56.36,62.72l-.14-.9h0c-.61-5.16-1.16-9.63-1.5-12.32a24.33,24.33,0,0,0-1.8-6.61A16,16,0,0,0,35,53.79,16,16,0,0,0,17.07,42.89a24.41,24.41,0,0,0-1.8,6.61c-.36,2.85-.92,7.47-1.55,12.75l-.07.46a35,35,0,0,0,42.72,0Z"/><path class="cls-4" d="M35,0A35,35,0,0,0,13.64,62.72l.07-.46c.63-5.28,1.19-9.9,1.55-12.75a24.41,24.41,0,0,1,1.8-6.61c2.87-6.65,8.67-11.44,16.25-11.44h3.34c7.59,0,13.39,4.79,16.26,11.44a24.33,24.33,0,0,1,1.8,6.61c.34,2.69.88,7.16,1.5,12.32h0l.14.9A35,35,0,0,0,35,0Z"/><circle class="cls-1" cx="17.38" cy="23.69" r="13.93"/><circle class="cls-3" cx="17.38" cy="23.69" r="10.99"/><circle class="cls-1" cx="52.88" cy="23.69" r="13.93"/><circle class="cls-3" cx="52.88" cy="23.69" r="10.99"/><path class="cls-5" d="M32.36,40.49v0Z"/><path class="cls-5" d="M37.62,40.49v0Z"/><path class="cls-6" d="M48.21,50.24S40.55,48.92,35,51.9"/><path class="cls-6" d="M48.19,53.65S41.12,50.43,35,51.9"/><path class="cls-6" d="M21.78,50.2S29.44,48.91,35,51.91"/><path class="cls-6" d="M21.78,53.61S28.86,50.42,35,51.91"/></svg>