<svg id="레이어_1" data-name="레이어 1" xmlns="http://www.w3.org/2000/svg" viewBox="0 0 70 70"><defs><style>.cls-1{fill:#e5e5e5;}.cls-2{fill:#00d887;}.cls-3{fill:#fff;}</style></defs><title>아이콘3</title><path class="cls-1" d="M70,35A35,35,0,1,0,20.27,66.75V45.54A3.56,3.56,0,0,1,21.36,43l7.74-7.45V7.58a2.67,2.67,0,0,1,2.67-2.67h.31a2.2,2.2,0,0,1,.54-.07h4.76a2.2,2.2,0,0,1,.54.07h.52a2.67,2.67,0,0,1,2.67,2.67V35.69L47,41.55l1.25,1.25a7.46,7.46,0,0,1,1.51,3.45V66.75A35,35,0,0,0,70,35Z"/><path class="cls-2" d="M31.54,55a1.24,1.24,0,0,1,1.24-1.24h17V46.25a7.46,7.46,0,0,0-1.51-3.45L47,41.55l-5.87-5.87V7.58a2.67,2.67,0,0,0-2.67-2.67h-.52a2.2,2.2,0,0,0-.54-.07H32.62a2.2,2.2,0,0,0-.54.07h-.31a2.67,2.67,0,0,0-2.67,2.67V35.53L21.36,43a3.56,3.56,0,0,0-1.09,2.56V66.75a34.76,34.76,0,0,0,11.27,3.08Z"/><path class="cls-3" d="M32.78,53.8A1.24,1.24,0,0,0,31.54,55V69.83c1.14.11,2.29.17,3.46.17a34.85,34.85,0,0,0,14.73-3.25V53.8Z"/></svg>