<svg id="레이어_1" data-name="레이어 1" xmlns="http://www.w3.org/2000/svg" viewBox="0 0 70 70"><defs><style>.cls-1{fill:#00d887;}.cls-2{fill:#fff;}.cls-3{fill:#e5e5e5;}.cls-4{fill:#343434;}.cls-5,.cls-6{fill:none;stroke:#343434;stroke-linecap:round;stroke-linejoin:round;}.cls-5{stroke-width:2.93px;}.cls-6{stroke-width:0.25px;}</style></defs><title>아이콘5</title><path class="cls-1" d="M70,35A35,35,0,1,0,7.36,56.46,51,51,0,0,1,20.83,38.58a44,44,0,0,1,6.26-4.34,48.71,48.71,0,0,1,24.15-6.17,44.54,44.54,0,0,1,4.54.24,1.36,1.36,0,0,0,.32,1.12,16.23,16.23,0,0,0-2.64,3.32h0C51.16,36.42,48.54,43,47.69,54.51a78,78,0,0,0,.24,13A35,35,0,0,0,70,35Z"/><circle class="cls-2" cx="16.41" cy="25.42" r="13.93"/><circle class="cls-3" cx="25.12" cy="21.02" r="13.93"/><circle class="cls-2" cx="25.12" cy="21.02" r="10.99"/><path class="cls-4" d="M55.78,28.3c1,.1,1.5.2,1.5.2a6.55,6.55,0,0,0-1.18.92,1.36,1.36,0,0,1-.32-1.12Z"/><path class="cls-3" d="M47.69,54.51c.85-11.48,3.47-18.08,5.76-21.76h0a16.23,16.23,0,0,1,2.64-3.32,1.36,1.36,0,0,1-.32-1.12,44.54,44.54,0,0,0-4.54-.24,48.71,48.71,0,0,0-24.15,6.17,44,44,0,0,0-6.26,4.34A51,51,0,0,0,7.36,56.46,35,35,0,0,0,47.94,67.52,78,78,0,0,1,47.69,54.51Z"/><path class="cls-5" d="M43.44,32.75v0Z"/><path class="cls-6" d="M46.74,36.75s4.49-6.34,10.54-8.16"/><path class="cls-6" d="M49.16,39.16s2.74-7.27,8.12-10.57"/><path class="cls-6" d="M67.92,36.62s-4.57-6.28-10.64-8"/><path class="cls-6" d="M65.53,39.06s-2.83-7.24-8.25-10.47"/></svg>