<?xml version="1.0" encoding="utf-8"?>
<!-- Generator: Adobe Illustrator 16.0.0, SVG Export Plug-In . SVG Version: 6.00 Build 0)  -->
<!DOCTYPE svg PUBLIC "-//W3C//DTD SVG 1.1//EN" "http://www.w3.org/Graphics/SVG/1.1/DTD/svg11.dtd">
<svg version="1.1" id="레이어_1" xmlns="http://www.w3.org/2000/svg" xmlns:xlink="http://www.w3.org/1999/xlink" x="0px"
	 y="0px" width="234.898px" height="57.237px" viewBox="0 0 234.898 57.237" enable-background="new 0 0 234.898 57.237"
	 xml:space="preserve">
<g>
	<path fill="#FFFFFF" d="M2.76,24.779c7.26-3.48,10.439-10.02,10.439-16.08V6.6c0-3,2.4-5.1,5.4-5.1c3,0,5.399,2.1,5.399,5.1v2.1
		c0,6.06,3.18,12.3,10.44,15.779c1.74,0.84,2.76,2.4,2.76,4.56c0,2.7-2.1,4.86-4.92,4.86c-0.84,0-1.8-0.24-2.46-0.54
		c-4.38-1.98-8.52-5.22-11.219-10.379c-2.7,5.28-6.84,8.7-11.22,10.679c-0.66,0.3-1.62,0.54-2.46,0.54c-2.82,0-4.92-2.16-4.92-4.86
		C0,27.179,1.02,25.619,2.76,24.779z M3.42,41.758c0-3,2.4-4.8,5.4-4.8s5.4,1.8,5.4,4.8v7.08h34.678c2.34,0,4.2,1.86,4.2,4.2
		s-1.86,4.2-4.2,4.2H8.52c-2.64,0-5.1-1.98-5.1-5.1V41.758z M40.499,6.299c0-3.06,2.4-5.399,5.4-5.399c3,0,5.4,2.34,5.4,5.399v9.9
		h3.24c2.34,0,4.2,1.86,4.2,4.2s-1.86,4.2-4.2,4.2h-3.24v13.26c0,3.12-2.4,5.399-5.4,5.399c-3,0-5.4-2.28-5.4-5.399V6.299z"/>
	<path fill="#FFFFFF" d="M72.6,47.998v2.28h37.918c1.98,0,3.48,1.5,3.48,3.48c0,1.979-1.5,3.479-3.48,3.479H65.28
		c-1.979,0-3.479-1.5-3.479-3.479v-8.88c0-1.74,1.38-3.12,3.12-3.12h37.079v-2.22H64.8c-1.86,0-3.3-1.44-3.3-3.3s1.44-3.3,3.3-3.3
		h17.16v-3.36H63.48c-2.1,0-3.78-1.68-3.78-3.72c0-2.16,1.68-3.84,3.78-3.84h47.578c2.16,0,3.84,1.68,3.84,3.84
		c0,2.04-1.68,3.72-3.84,3.72H92.639v3.36h16.859c1.86,0,3.3,1.44,3.3,3.3v8.64c0,1.74-1.38,3.12-3.12,3.12H72.6z M65.28,11.579
		c8.94,0,16.62-3.3,16.62-7.439V3.66c0-2.1,2.4-3.66,5.52-3.66c3,0,5.28,1.56,5.28,3.66v0.48c0,4.14,7.68,7.439,16.62,7.439
		c2.28,0,4.08,1.8,4.08,4.08s-1.8,4.08-4.08,4.08h-0.3c-10.979,0-18.299-3-21.719-7.68c-3.48,4.68-10.8,7.68-21.719,7.68h-0.3
		c-2.28,0-4.08-1.8-4.08-4.08S63,11.579,65.28,11.579z"/>
	<path fill="#FFFFFF" d="M124.08,33.059c-2.28,0-4.14-1.86-4.14-4.14s1.86-4.14,4.14-4.14h1.62l-0.72-8.459
		c-0.24-3,2.16-4.44,5.16-4.44c3,0,5.04,1.44,5.16,4.44l0.36,8.459h3.96l0.42-8.459c0.12-3,2.16-4.44,5.16-4.44s5.4,1.44,5.16,4.44
		l-0.72,8.459h1.62c2.28,0,4.14,1.86,4.14,4.14s-1.86,4.14-4.14,4.14H124.08z M124.68,10.679c-2.28,0-4.14-1.86-4.14-4.14
		s1.86-4.14,4.14-4.14h25.979c2.28,0,4.14,1.86,4.14,4.14s-1.86,4.14-4.14,4.14H124.68z M134.04,57.237
		c-6.3,0-11.22-3.96-11.22-10.259c0-6.36,4.92-10.32,11.22-10.32h28.859c6.36,0,11.28,3.96,11.28,10.32
		c0,6.299-4.92,10.259-11.28,10.259H134.04z M136.2,49.078h24.539c1.8,0,2.76-0.72,2.76-2.1c0-1.38-0.96-2.16-2.76-2.16H136.2
		c-1.8,0-2.7,0.78-2.7,2.16C133.5,48.358,134.399,49.078,136.2,49.078z M162.778,26.938h-4.44c-2.28,0-3.479-1.86-3.479-4.08
		c0-2.28,1.2-4.14,3.479-4.14h4.44v-2.64h-4.44c-2.28,0-3.479-1.86-3.479-4.08c0-2.28,1.2-4.14,3.479-4.14h4.44V6
		c0-3.06,2.4-5.1,5.4-5.1s5.4,2.04,5.4,5.1v24.299c0,3.12-2.4,5.4-5.4,5.4s-5.4-2.28-5.4-5.4V26.938z"/>
	<path fill="#FFFFFF" d="M185.7,10.5c-2.34,0-4.2-1.8-4.2-4.2c0-2.34,1.86-4.2,4.2-4.2h42.358c2.28,0,4.14,1.86,4.14,4.14
		c0,7.32-1.38,12.6-3.359,17.22h1.8c2.399,0,4.26,1.92,4.26,4.26c0,2.22-1.86,4.14-4.26,4.14h-5.76v6.48
		c0,3.12-2.4,5.399-5.399,5.399c-3,0-5.4-2.28-5.4-5.399v-6.48h-5.52c-0.42,5.7-1.92,11.879-6.96,11.879
		c-2.88,0-5.16-1.98-5.16-4.68c0-0.48,0.12-1.26,0.3-1.8c0.6-1.8,0.9-3.18,1.08-5.4H183.9c-2.28,0-4.2-1.92-4.2-4.14
		c0-2.34,1.92-4.26,4.2-4.26h33.778c2.28-4.02,3.721-9.54,3.721-12.959H185.7z M181.8,41.458c0-3,2.4-4.8,5.399-4.8
		c3,0,5.4,1.8,5.4,4.8v7.38h37.199c2.34,0,4.199,1.86,4.199,4.2s-1.859,4.2-4.199,4.2H186.9c-2.64,0-5.1-1.98-5.1-5.1V41.458z"/>
</g>
</svg>
