<?xml version="1.0" encoding="utf-8"?>
<!-- Generator: Adobe Illustrator 16.0.0, SVG Export Plug-In . SVG Version: 6.00 Build 0)  -->
<!DOCTYPE svg PUBLIC "-//W3C//DTD SVG 1.1//EN" "http://www.w3.org/Graphics/SVG/1.1/DTD/svg11.dtd">
<svg version="1.1" id="레이어_1" xmlns="http://www.w3.org/2000/svg" xmlns:xlink="http://www.w3.org/1999/xlink" x="0px"
	 y="0px" width="392.136px" height="430.773px" viewBox="0 0 392.136 430.773" enable-background="new 0 0 392.136 430.773"
	 xml:space="preserve">
<path opacity="0.4" fill="#00D887" d="M21.917,196.369c-3.618,14.236-5.546,29.147-5.546,44.51
	c0,48.692,19.324,92.866,50.712,125.292l129.462-125.292L21.917,196.369z"/>
<path opacity="0.7" fill="#00D887" d="M196.545,421.052c83.962,0,154.509-57.431,174.503-135.152l-174.503-45.021L67.083,366.17
	C99.838,400.008,145.732,421.052,196.545,421.052z"/>
<path fill="#00D887" d="M224.715,62.901c-9.18-1.441-18.586-2.197-28.17-2.197v180.175L371.048,285.9
	c1.694-6.587,3.013-13.323,3.958-20.18c1.121-8.122,1.713-16.412,1.713-24.842C376.719,150.955,310.84,76.424,224.715,62.901z"/>
<path opacity="0.2" fill="#00D887" d="M133.87,71.913c-55.001,20.41-97.327,66.902-111.952,124.456l174.628,44.51L133.87,71.913z"/>
<path opacity="0.05" fill="#606060" d="M150.659,66.609c-5.712,1.5-11.313,3.272-16.789,5.304l62.676,168.966V60.704
	C180.687,60.704,165.31,62.761,150.659,66.609z"/>
<circle fill="#FFFFFF" cx="196.546" cy="240.878" r="71.239"/>
<g>
	<text transform="matrix(0.9655 0 0 1 178.436 232.8774)"><tspan x="0" y="0" font-family="'AppleSDGothicNeoM00'" font-size="20">합계</tspan><tspan x="-26.97" y="28" font-family="'AppleSDGothicNeoM00'" font-size="20">170,900원</tspan></text>
</g>
<text transform="matrix(0.9655 0 0 1 273.7349 163.6392)"><tspan x="0" y="0" font-family="'AppleSDGothicNeoM00'" font-size="20">서종현</tspan><tspan x="-13.23" y="28" font-family="'AppleSDGothicNeoM00'" font-size="20">56,960원</tspan></text>
<text transform="matrix(0.9655 0 0 1 204.9683 346.2563)"><tspan x="0" y="0" font-family="'AppleSDGothicNeoM00'" font-size="20">전해성</tspan><tspan x="-13.23" y="28" font-family="'AppleSDGothicNeoM00'" font-size="20">56,960원</tspan></text>
<text transform="matrix(0.9655 0 0 1 52.2358 265.106)"><tspan x="0" y="0" font-family="'AppleSDGothicNeoM00'" font-size="20">서인경</tspan><tspan x="-12.32" y="28" font-family="'AppleSDGothicNeoM00'" font-size="20">22,788원</tspan></text>
<text transform="matrix(0.9655 0 0 1 76.6421 156.395)"><tspan x="0" y="0" font-family="'AppleSDGothicNeoM00'" font-size="20">장순호</tspan><tspan x="-12.32" y="28" font-family="'AppleSDGothicNeoM00'" font-size="20">22,788원</tspan></text>
<text transform="matrix(0.9655 0 0 1 16.4585 17.8237)"><tspan x="0" y="0" font-family="'AppleSDGothicNeoM00'" font-size="20">박기태</tspan><tspan x="-10.939" y="28" font-family="'AppleSDGothicNeoM00'" font-size="20">13,994원</tspan></text>
<polyline fill="none" stroke="#000000" stroke-width="0.5" stroke-miterlimit="10" points="165.208,63.43 158.888,22.164 
	77.29,22.164 "/>
</svg>
